<svg id="Layer_1" data-name="Layer 1" xmlns="http://www.w3.org/2000/svg" viewBox="0 0 85.45 131.52"><defs><style>.cls-1{fill:#abd3e4;}.cls-2{fill:#ecf2fa;}.cls-3{fill:#e2e2e2;}.cls-4{fill:#eaeef8;}.cls-5{fill:#bfbfbf;}.cls-6{fill:#ffd797;}.cls-7{fill:#ece956;}.cls-8{fill:#ddd653;}.cls-9{fill:#fff0d3;}.cls-10{fill:#fff;}</style></defs><title>lacteos</title><polygon class="cls-1" points="38.62 11.07 38.25 2.63 68.66 0 68.66 8.26 38.62 11.07"/><polygon class="cls-2" points="34.07 25.43 38.62 11.07 68.66 8.26 65.18 21.49 34.07 25.43"/><polygon class="cls-1" points="37.87 83.58 34.07 25.43 65.18 21.49 72.22 80.2 37.87 83.58"/><polygon class="cls-3" points="68.66 8.26 79.4 18.11 65.18 21.49 68.66 8.26"/><polygon class="cls-4" points="72.22 80.2 85.45 70.48 79.4 18.11 65.18 21.49 72.22 80.2"/><polygon class="cls-5" points="79.4 18.11 66.87 14.88 68.66 8.26 79.4 18.11"/><path class="cls-6" d="M24.41,64.82c-6.61.14-9.15,18.58-7.6,22.1S23.15,90,23.15,90s5.06-.28,6.19-4.22S31,64.68,24.41,64.82Z" transform="translate(-16.37 -3.75)"/><path class="cls-6" d="M32,65c-6.62.14-9.15,18.58-7.6,22.1s6.33,3.1,6.33,3.1S35.82,89.92,37,86,38.64,64.86,32,65Z" transform="translate(-16.37 -3.75)"/><path class="cls-7" d="M95.54,125.18c0-4.07,6-2.47,6-2.47l-.35-14.87-47.6,3.72L52,119.17s4.25.71,4.6,4.24-3.89,2.83-3.89,2.83l-1.42,9,49-3.54.53-2.83S95.54,129.25,95.54,125.18Zm-29.82-.53a4.16,4.16,0,1,1,4.16-4.16A4.15,4.15,0,0,1,65.72,124.65Zm13.37,6.41a4.16,4.16,0,1,1,4.16-4.16A4.16,4.16,0,0,1,79.09,131.06Zm9.19-10a4.25,4.25,0,1,1,4.25-4.24A4.24,4.24,0,0,1,88.28,121.11Z" transform="translate(-16.37 -3.75)"/><path class="cls-8" d="M92.53,92.1,53.6,111.56l47.6-3.72Zm-15.13,15a1.86,1.86,0,1,1,1.86-1.86A1.87,1.87,0,0,1,77.4,107.14ZM87.93,102a1.77,1.77,0,1,1,1.77-1.77A1.77,1.77,0,0,1,87.93,102Zm5.66,4.42a1.77,1.77,0,1,1,1.77-1.77A1.77,1.77,0,0,1,93.59,106.43Z" transform="translate(-16.37 -3.75)"/><path class="cls-9" d="M27.77,67.47c-6.61.14-9.15,18.59-7.6,22.11s6.34,3.09,6.34,3.09,5.07-.28,6.19-4.22S34.39,67.33,27.77,67.47Z" transform="translate(-16.37 -3.75)"/><path class="cls-10" d="M101.82,74.23S99.09,66.38,97,67.9c-.94.61-2,1.63-4.22-1.94-1.29-.38-5-.61-6.07,1.82-2-3.79-5.09-1.06-7.29-2.73-.83-.61-1.74-4.78-4.85-5.77S70,60.65,69.14,60.8c-4.85-1.44-4.63,6.3-5.38,6.07h0S62,67.5,62,68.79c.06.76-.47,2.78,1.88.43,0,2.73.76,4.78,4,3.72.91-2.43-3-4.7,3-7.59-.75,3.72.46,3.42,1.22,3.34,2.35-.07,2.95-1.56,3.55-1.4a11.51,11.51,0,0,1-.14,3.42c-2.43,4.48-1.44,2.46-3.41,3.44s-2.28,3.57-4.55,4.25-5.09-.91-7,.61-6.41,8.31-6.41,8.31L88.59,84Z" transform="translate(-16.37 -3.75)"/><path class="cls-10" d="M58.58,66.12c-.53-.53-1.12-.38-1.12-.85s2.28-.81,1.12.85" transform="translate(-16.37 -3.75)"/><path class="cls-10" d="M82.33,63.09a.72.72,0,0,1-.78.63.71.71,0,0,1-.77-.63c0-.35.35,0,.77-.64S82.33,62.74,82.33,63.09Z" transform="translate(-16.37 -3.75)"/><path class="cls-10" d="M58.18,73.25c0,.77.18.28.57.28s.63-.18.63-1,1.16-1.09.77-1.09S58.18,72.47,58.18,73.25Z" transform="translate(-16.37 -3.75)"/><path class="cls-3" d="M86.75,67.78l1.82,16.09,13.25-9.64S100.6,66.44,97,67.9c-3.57.75-3.85-2-4.22-1.94C87.37,64.85,86.75,67.78,86.75,67.78Z" transform="translate(-16.37 -3.75)"/></svg>