<svg id="Layer_1" data-name="Layer 1" xmlns="http://www.w3.org/2000/svg" viewBox="0 0 123.83 92.3"><defs><style>.cls-1{fill:#e37725;}.cls-2{fill:#fccfbd;}</style></defs><title>panaderia</title><path class="cls-1" d="M12.41,75.11c3.76,3,65.92-20.28,65.76-29.33-.71-4.83-14.57-18.1-42.8-7.93S8.64,72.1,12.41,75.11Z" transform="translate(-10.37 -34.09)"/><path class="cls-2" d="M17.88,49.15s5.82,10,8.57,10c-1.6-3-1.24-16.32-1.24-16.32A19.27,19.27,0,0,0,17.88,49.15Z" transform="translate(-10.37 -34.09)"/><path class="cls-2" d="M32.49,39s5.11,14.79,7.14,15.23c-.88-2.93,1.11-18,1.11-18C34.08,37.57,32.49,39,32.49,39Z" transform="translate(-10.37 -34.09)"/><path class="cls-2" d="M48,34.72s3.27,17.53,5.29,17.41c-.48-2.82,2.38-17.89,2.38-17.89A24.79,24.79,0,0,0,48,34.72Z" transform="translate(-10.37 -34.09)"/><path class="cls-1" d="M78.7,53.62s34.33-10,38.6-8.9c17.75,4.16,16.54,13.8,15.23,15.45A3.79,3.79,0,0,1,133.84,63s.88,15.13-.1,16.88-29.48,6.68-29.48,6.68Z" transform="translate(-10.37 -34.09)"/><path class="cls-2" d="M78.18,59.84s-2.85-2.3-2.41-3.73c.07-.7.72-1.37,1.78-2,5.38-2.94,21.43-3.41,26.93,7.21.88,3.07-2.41,2.63-2.41,2.63s2.52,2.08,3.07,3.4,1.09,17.42-.88,19.17-27.07-4-28.27-5.26-1.43-18.73-.66-19.94S78.18,59.84,78.18,59.84Z" transform="translate(-10.37 -34.09)"/><path class="cls-1" d="M37.35,118.28c.92,3.58,14.93,8,29.37,8.11,14.63.12,28.36-4.4,29-8.11S96.22,91,64.63,91.48C38,94.35,36.42,114.71,37.35,118.28Z" transform="translate(-10.37 -34.09)"/><path class="cls-2" d="M62.62,91.74c3.41.55,22,19.84,22,19.84S62.27,93,58.41,92.56A19.6,19.6,0,0,1,62.62,91.74Z" transform="translate(-10.37 -34.09)"/><path class="cls-2" d="M53.77,94c2.63-.65,25.53,22.74,25.53,22.74S55.59,96.5,49.74,95.94C50.21,95.34,51.13,94.66,53.77,94Z" transform="translate(-10.37 -34.09)"/><path class="cls-2" d="M45.9,98.56c2.47-.49,25.79,22.23,25.79,22.23S45.17,100.66,43.27,101.1A18,18,0,0,1,45.9,98.56Z" transform="translate(-10.37 -34.09)"/><path class="cls-2" d="M73.86,92.11c-3.68,0-25.43,24-25.43,24s24.89-21.85,30-22.93A19.57,19.57,0,0,0,73.86,92.11Z" transform="translate(-10.37 -34.09)"/><path class="cls-2" d="M84.21,95.62c-5.64.75-27.76,25.8-27.76,25.8S82.74,97.76,87.61,98A21.42,21.42,0,0,0,84.21,95.62Z" transform="translate(-10.37 -34.09)"/></svg>